# xmcd
#
# Track frame offsets:
#	150
#	12617
#	23428
#	33833
#	45142
#	56833
#	67129
#	80037
#	89663
#	102009
#	113088
#	123923
#	135242
#	146847
#	161202
#	173266
#	184149
#	194369
#	205582
#	215614
#	227727
#	239424
#	249492
#
# Disc length: 3494 seconds
#
# Revision: 2
# Processed by: cddbd v1.4PL0 Copyright (c) Steve Scherf et al.
# Submitted via: EasyCDDAExtractor 5.0.7
#
DISCID=3a0da417
DTITLE=Five Satins - Original Master Tapes Collection Vol-2
DYEAR=1900
DGENRE=R&B
TTITLE0=To The Aisle
TTITLE1=Our Anniversary
TTITLE2=Wish I Had My Baby
TTITLE3=Love With No Love In Return
TTITLE4=Playmates
TTITLE5=Candlelight
TTITLE6=A Night Like This
TTITLE7=Pretty Baby
TTITLE8=The Time
TTITLE9=That's Love
TTITLE10=Tell Me Dear
TTITLE11=You Must Be An Angel
TTITLE12=A Night To Remember(take 2)
TTITLE13=I'll Get Along
TTITLE14=Love With No Love In Return(take 5)
TTITLE15=Senorita Lolita
TTITLE16=Wish I Had My Baby
TTITLE17=A Million To One
TTITLE18=I Got Time
TTITLE19=Pretty Baby(takes 1 and 3)
TTITLE20=When The Swallows Come Back To Capistrano(take 12)
TTITLE21=Toni My Love
TTITLE22=To The Aisle(Take 5)
EXTD=
EXTT0=
EXTT1=
EXTT2=
EXTT3=
EXTT4=
EXTT5=
EXTT6=
EXTT7=
EXTT8=
EXTT9=
EXTT10=
EXTT11=
EXTT12=
EXTT13=
EXTT14=
EXTT15=
EXTT16=
EXTT17=
EXTT18=
EXTT19=
EXTT20=
EXTT21=
EXTT22=
PLAYORDER=
